<svg width="20" height="20" viewBox="0 0 20 20" fill="none" xmlns="http://www.w3.org/2000/svg">
<g clip-path="url(#clip0_144_249)">
<path d="M15.8333 18.3339H4.16667C3.062 18.3326 2.00296 17.8932 1.22185 17.1121C0.440735 16.3309 0.00132321 15.2719 0 14.1672L0 5.8339C0.00132321 4.72924 0.440735 3.6702 1.22185 2.88909C2.00296 2.10797 3.062 1.66856 4.16667 1.66724H15.8333C16.938 1.66856 17.997 2.10797 18.7782 2.88909C19.5593 3.6702 19.9987 4.72924 20 5.8339V14.1672C19.9987 15.2719 19.5593 16.3309 18.7782 17.1121C17.997 17.8932 16.938 18.3326 15.8333 18.3339ZM4.16667 3.3339C3.50363 3.3339 2.86774 3.5973 2.3989 4.06614C1.93006 4.53498 1.66667 5.17086 1.66667 5.8339V14.1672C1.66667 14.8303 1.93006 15.4662 2.3989 15.935C2.86774 16.4038 3.50363 16.6672 4.16667 16.6672H15.8333C16.4964 16.6672 17.1323 16.4038 17.6011 15.935C18.0699 15.4662 18.3333 14.8303 18.3333 14.1672V5.8339C18.3333 5.17086 18.0699 4.53498 17.6011 4.06614C17.1323 3.5973 16.4964 3.3339 15.8333 3.3339H4.16667Z" fill="white"/>
<path d="M15.833 10.8339H9.16634C8.94533 10.8339 8.73337 10.7461 8.57709 10.5898C8.42081 10.4336 8.33301 10.2216 8.33301 10.0006C8.33301 9.77956 8.42081 9.5676 8.57709 9.41132C8.73337 9.25503 8.94533 9.16724 9.16634 9.16724H15.833C16.054 9.16724 16.266 9.25503 16.4223 9.41132C16.5785 9.5676 16.6663 9.77956 16.6663 10.0006C16.6663 10.2216 16.5785 10.4336 16.4223 10.5898C16.266 10.7461 16.054 10.8339 15.833 10.8339Z" fill="white"/>
<path d="M5.83349 10.8339H4.16683C3.94581 10.8339 3.73385 10.7461 3.57757 10.5898C3.42129 10.4336 3.3335 10.2216 3.3335 10.0006C3.3335 9.77956 3.42129 9.5676 3.57757 9.41132C3.73385 9.25503 3.94581 9.16724 4.16683 9.16724H5.83349C6.0545 9.16724 6.26647 9.25503 6.42275 9.41132C6.57903 9.5676 6.66682 9.77956 6.66682 10.0006C6.66682 10.2216 6.57903 10.4336 6.42275 10.5898C6.26647 10.7461 6.0545 10.8339 5.83349 10.8339Z" fill="white"/>
<path d="M10.8335 14.9994H4.16683C3.94582 14.9994 3.73385 14.9116 3.57757 14.7554C3.42129 14.5991 3.3335 14.3871 3.3335 14.1661C3.3335 13.9451 3.42129 13.7331 3.57757 13.5768C3.73385 13.4206 3.94582 13.3328 4.16683 13.3328H10.8335C11.0545 13.3328 11.2665 13.4206 11.4228 13.5768C11.579 13.7331 11.6668 13.9451 11.6668 14.1661C11.6668 14.3871 11.579 14.5991 11.4228 14.7554C11.2665 14.9116 11.0545 14.9994 10.8335 14.9994Z" fill="white"/>
<path d="M15.833 14.9994H14.1663C13.9453 14.9994 13.7334 14.9116 13.5771 14.7554C13.4208 14.5991 13.333 14.3871 13.333 14.1661C13.333 13.9451 13.4208 13.7331 13.5771 13.5768C13.7334 13.4206 13.9453 13.3328 14.1663 13.3328H15.833C16.054 13.3328 16.266 13.4206 16.4223 13.5768C16.5785 13.7331 16.6663 13.9451 16.6663 14.1661C16.6663 14.3871 16.5785 14.5991 16.4223 14.7554C16.266 14.9116 16.054 14.9994 15.833 14.9994Z" fill="white"/>
</g>
<defs>
<clipPath id="clip0_144_249">
<rect width="20" height="20" fill="white"/>
</clipPath>
</defs>
</svg>
