<svg width="20" height="20" viewBox="0 0 20 20" fill="none" xmlns="http://www.w3.org/2000/svg">
<g clip-path="url(#clip0_136_402)">
<path d="M19.1667 14.167C18.9457 14.167 18.7337 14.2548 18.5774 14.4111C18.4211 14.5674 18.3333 14.7794 18.3333 15.0004V17.1554L15.8383 14.6604C17.6667 12.7087 19.1667 10.4562 19.1667 8.32288C19.2127 7.05864 18.7565 5.82756 17.8977 4.89865C17.0389 3.96973 15.8473 3.41849 14.5833 3.36538C13.8316 3.37517 13.0944 3.57347 12.4392 3.94212C11.7841 4.31076 11.2319 4.83796 10.8333 5.47538C10.4348 4.83796 9.88262 4.31076 9.22745 3.94212C8.57228 3.57347 7.83505 3.37517 7.08335 3.36538C6.37663 3.36744 5.68145 3.54467 5.06001 3.88121L1.42251 0.244547C1.26535 0.0927483 1.05484 0.00875294 0.836346 0.0106516C0.617849 0.0125503 0.408838 0.100191 0.254332 0.254698C0.0998249 0.409205 0.0121841 0.618215 0.0102854 0.836712C0.00838673 1.05521 0.0923821 1.26571 0.24418 1.42288L3.75001 4.92955C2.93739 5.87269 2.49341 7.07796 2.50001 8.32288C2.50001 11.482 5.79251 14.9062 8.55418 17.2195C9.19227 17.7565 9.99942 18.0509 10.8333 18.0509C11.6673 18.0509 12.4744 17.7565 13.1125 17.2195C13.6192 16.7945 14.1442 16.332 14.6633 15.8412L17.155 18.3337H15C14.779 18.3337 14.567 18.4215 14.4108 18.5778C14.2545 18.7341 14.1667 18.946 14.1667 19.167C14.1667 19.3881 14.2545 19.6 14.4108 19.7563C14.567 19.9126 14.779 20.0004 15 20.0004H18.3333C18.7754 20.0004 19.1993 19.8248 19.5119 19.5122C19.8244 19.1997 20 18.7757 20 18.3337V15.0004C20 14.7794 19.9122 14.5674 19.7559 14.4111C19.5997 14.2548 19.3877 14.167 19.1667 14.167ZM12.0417 15.9437C11.6994 16.2195 11.273 16.37 10.8333 16.37C10.3937 16.37 9.96733 16.2195 9.62501 15.9437C6.15585 13.0362 4.16668 10.2587 4.16668 8.32288C4.12102 7.50068 4.40181 6.69369 4.94801 6.07743C5.4942 5.46117 6.26161 5.08547 7.08335 5.03205C7.90508 5.08547 8.6725 5.46117 9.21869 6.07743C9.76488 6.69369 10.0457 7.50068 10 8.32288C10 8.54389 10.0878 8.75586 10.2441 8.91214C10.4004 9.06842 10.6123 9.15621 10.8333 9.15621C11.0544 9.15621 11.2663 9.06842 11.4226 8.91214C11.5789 8.75586 11.6667 8.54389 11.6667 8.32288C11.621 7.50068 11.9018 6.69369 12.448 6.07743C12.9942 5.46117 13.7616 5.08547 14.5833 5.03205C15.4051 5.08547 16.1725 5.46117 16.7187 6.07743C17.2649 6.69369 17.5457 7.50068 17.5 8.32288C17.5 10.2579 15.51 13.0354 12.0417 15.9437Z" fill="white"/>
</g>
<defs>
<clipPath id="clip0_136_402">
<rect width="20" height="20" fill="white"/>
</clipPath>
</defs>
</svg>
