<svg width="14" height="14" viewBox="0 0 14 14" fill="none" xmlns="http://www.w3.org/2000/svg">
<g clip-path="url(#clip0_336_441)">
<path d="M7.00033 0C5.45375 0.00169843 3.97101 0.616825 2.87741 1.71042C1.78382 2.80401 1.16869 4.28676 1.16699 5.83333C1.16699 8.9145 6.06699 13.1443 6.62349 13.6168L7.00033 13.9353L7.37716 13.6168C7.93366 13.1443 12.8337 8.9145 12.8337 5.83333C12.832 4.28676 12.2168 2.80401 11.1232 1.71042C10.0296 0.616825 8.5469 0.00169843 7.00033 0V0ZM7.00033 8.75C6.42346 8.75 5.85956 8.57894 5.37991 8.25845C4.90027 7.93797 4.52643 7.48244 4.30568 6.94949C4.08492 6.41654 4.02716 5.8301 4.1397 5.26432C4.25224 4.69854 4.53003 4.17884 4.93793 3.77094C5.34583 3.36304 5.86553 3.08525 6.43131 2.97271C6.99709 2.86017 7.58353 2.91793 8.11649 3.13868C8.64944 3.35944 9.10496 3.73328 9.42545 4.21292C9.74593 4.69256 9.91699 5.25647 9.91699 5.83333C9.91607 6.6066 9.60848 7.34793 9.0617 7.89471C8.51492 8.44149 7.77359 8.74907 7.00033 8.75V8.75Z" fill="white"/>
<path d="M7 7.5835C7.9665 7.5835 8.75 6.79999 8.75 5.8335C8.75 4.867 7.9665 4.0835 7 4.0835C6.0335 4.0835 5.25 4.867 5.25 5.8335C5.25 6.79999 6.0335 7.5835 7 7.5835Z" fill="white"/>
</g>
<defs>
<clipPath id="clip0_336_441">
<rect width="14" height="14" fill="white"/>
</clipPath>
</defs>
</svg>
