<svg width="24" height="24" viewBox="0 0 24 24" fill="none" xmlns="http://www.w3.org/2000/svg">
<g clip-path="url(#clip0_8_1703)">
<path d="M24 11.5004C23.9999 12.3885 23.6622 13.2433 23.0554 13.8917C22.4486 14.5401 21.618 14.9336 20.732 14.9924C19.7214 17.1069 18.0641 18.8447 16 19.9544V23.0004C16 23.2656 15.8946 23.52 15.7071 23.7075C15.5195 23.8951 15.2652 24.0004 15 24.0004H8.99995C8.73473 24.0004 8.48038 23.8951 8.29284 23.7075C8.10531 23.52 7.99995 23.2656 7.99995 23.0004V19.9534C6.07299 18.9043 4.49436 17.3153 3.45795 15.3814C3.33595 15.1459 3.31251 14.8716 3.39277 14.6188C3.47304 14.366 3.65044 14.1554 3.88595 14.0334C4.12146 13.9114 4.39579 13.888 4.64859 13.9682C4.90139 14.0485 5.11195 14.2259 5.23395 14.4614C6.39995 16.7174 9.09995 19.0004 12 19.0004C15.129 19.0004 18.212 16.2214 19.128 13.6244C19.2059 13.4005 19.3613 13.2119 19.5662 13.0925C19.771 12.9731 20.0117 12.9309 20.245 12.9734C20.3291 12.9892 20.4144 12.9982 20.5 13.0004C20.8712 12.996 21.2275 12.8541 21.5002 12.6021C21.7728 12.3501 21.9423 12.006 21.9759 11.6362C22.0095 11.2665 21.9048 10.8975 21.682 10.6005C21.4593 10.3035 21.1343 10.0997 20.77 10.0284C20.5573 9.98988 20.3629 9.88351 20.2158 9.72523C20.0687 9.56695 19.9768 9.36529 19.954 9.15042C19.8217 7.88551 19.3883 6.67069 18.6901 5.60766C17.9919 4.54463 17.0492 3.66432 15.941 3.04042C15.6583 3.92586 15.2801 4.77789 14.813 5.58142C13.5149 7.42156 11.8216 8.94787 9.85695 10.0484C10.1565 10.1218 10.4262 10.2857 10.6292 10.5178C10.8323 10.75 10.9589 11.0391 10.9917 11.3457C11.0245 11.6524 10.962 11.9617 10.8127 12.2316C10.6634 12.5015 10.4345 12.7187 10.1572 12.8538C9.87996 12.9889 9.56779 13.0353 9.26325 12.9865C8.9587 12.9378 8.67658 12.7964 8.4553 12.5816C8.23402 12.3667 8.08435 12.0889 8.02666 11.7859C7.96898 11.4829 8.0061 11.1695 8.13295 10.8884C5.83378 11.8195 3.34775 12.1963 0.875952 11.9884C0.669923 11.9608 0.477621 11.8697 0.325789 11.7277C0.173956 11.5857 0.0701419 11.4 0.028783 11.1962C-0.0125758 10.9925 0.0105769 10.781 0.0950212 10.591C0.179466 10.4011 0.321004 10.2422 0.499952 10.1364C1.10448 9.45053 1.55433 8.64257 1.81895 7.76742C3.12395 4.67442 5.09995 0.000421229 12 0.000421229C14.3543 -0.00479462 16.6347 0.822939 18.4375 2.33717C20.2403 3.8514 21.4495 5.95452 21.851 8.27442C22.4871 8.54062 23.0305 8.98882 23.4128 9.56276C23.7952 10.1367 23.9994 10.8108 24 11.5004ZM16 11.5004C16 11.2038 15.912 10.9137 15.7472 10.6671C15.5823 10.4204 15.3481 10.2281 15.074 10.1146C14.7999 10.0011 14.4983 9.97137 14.2073 10.0292C13.9163 10.0871 13.6491 10.23 13.4393 10.4398C13.2295 10.6495 13.0867 10.9168 13.0288 11.2078C12.9709 11.4988 13.0006 11.8004 13.1141 12.0744C13.2277 12.3485 13.4199 12.5828 13.6666 12.7476C13.9133 12.9124 14.2033 13.0004 14.5 13.0004C14.8978 13.0004 15.2793 12.8424 15.5606 12.5611C15.8419 12.2798 16 11.8982 16 11.5004Z" fill="#6860FF"/>
</g>
<defs>
<clipPath id="clip0_8_1703">
<rect width="24" height="24" fill="white"/>
</clipPath>
</defs>
</svg>
