<svg width="24" height="24" viewBox="0 0 24 24" fill="none" xmlns="http://www.w3.org/2000/svg">
<g clip-path="url(#clip0_8_1717)">
<path d="M9.99981 19H7.99981V16.683C7.03849 15.8265 6.27303 14.7729 5.75555 13.5939C5.23806 12.415 4.98072 11.1384 5.00102 9.851C5.02133 8.56363 5.31882 7.29576 5.87323 6.13372C6.42764 4.97167 7.22595 3.94274 8.21381 3.11699C7.81331 3.04282 7.40711 3.00367 6.99981 2.99999C5.23948 3.01355 3.54889 3.68987 2.26491 4.89417C0.980935 6.09848 0.197855 7.74235 0.0717158 9.4982C-0.0544234 11.2541 0.48564 12.993 1.58429 14.3685C2.68293 15.7439 4.2595 16.655 5.99981 16.92V19H3.99981C3.7346 19 3.48024 19.1053 3.29271 19.2929C3.10517 19.4804 2.99981 19.7348 2.99981 20C2.99981 20.2652 3.10517 20.5196 3.29271 20.7071C3.48024 20.8946 3.7346 21 3.99981 21H5.99981V23C5.99981 23.2652 6.10517 23.5196 6.29271 23.7071C6.48024 23.8946 6.7346 24 6.99981 24C7.26503 24 7.51938 23.8946 7.70692 23.7071C7.89445 23.5196 7.99981 23.2652 7.99981 23V21H9.99981C10.265 21 10.5194 20.8946 10.7069 20.7071C10.8945 20.5196 10.9998 20.2652 10.9998 20C10.9998 19.7348 10.8945 19.4804 10.7069 19.2929C10.5194 19.1053 10.265 19 9.99981 19Z" fill="#6860FF"/>
<path d="M21.9998 -7.62939e-06H17.9998C17.7346 -7.62939e-06 17.4802 0.105349 17.2927 0.292886C17.1051 0.480422 16.9998 0.734776 16.9998 0.999992C16.9998 1.26521 17.1051 1.51956 17.2927 1.7071C17.4802 1.89464 17.7346 1.99999 17.9998 1.99999H20.5858L18.1858 4.39999C16.7638 3.33407 14.9908 2.84642 13.2238 3.03521C11.4567 3.224 9.82678 4.0752 8.66211 5.41747C7.49743 6.75973 6.88449 8.49339 6.94669 10.2694C7.00889 12.0454 7.7416 13.732 8.99733 14.9895C10.253 16.247 11.9385 16.9821 13.7145 17.0468C15.4904 17.1115 17.2249 16.501 18.5688 15.3382C19.9127 14.1754 20.7662 12.5467 20.9575 10.7799C21.1488 9.01312 20.6637 7.23946 19.5998 5.81599L21.9998 3.41599V5.99999C21.9998 6.26521 22.1051 6.51956 22.2927 6.7071C22.4802 6.89464 22.7345 6.99999 22.9998 6.99999C23.265 6.99999 23.5193 6.89464 23.7069 6.7071C23.8944 6.51956 23.9998 6.26521 23.9998 5.99999V1.99999C23.9998 1.46956 23.789 0.960852 23.414 0.585779C23.0389 0.210706 22.5302 -7.62939e-06 21.9998 -7.62939e-06V-7.62939e-06Z" fill="#6860FF"/>
</g>
<defs>
<clipPath id="clip0_8_1717">
<rect width="24" height="24" fill="white"/>
</clipPath>
</defs>
</svg>
