<svg width="15" height="20" viewBox="0 0 15 20" fill="none" xmlns="http://www.w3.org/2000/svg">
<path d="M3.64583 6.60565C3.64583 5.45132 2.11053 5.14536 1.70321 6.22543C0.717913 8.83807 0 11.1753 0 12.4389C0 16.4659 3.26459 19.7305 7.29167 19.7305C11.3187 19.7305 14.5833 16.4659 14.5833 12.4389C14.5833 11.0813 13.7547 8.48452 12.6561 5.63833C11.2329 1.95137 10.5213 0.107899 9.64298 0.00860545C9.36191 -0.0231669 9.05529 0.0339566 8.80452 0.164808C8.02083 0.573742 8.02083 2.58438 8.02083 6.60565C8.02083 7.81377 7.04146 8.79315 5.83333 8.79315C4.62521 8.79315 3.64583 7.81377 3.64583 6.60565Z" fill="url(#paint0_linear_384_453)"/>
<defs>
<linearGradient id="paint0_linear_384_453" x1="7.29167" y1="0" x2="7.29167" y2="19.7305" gradientUnits="userSpaceOnUse">
<stop stop-color="#E8AD7C"/>
<stop offset="1" stop-color="#C84A5D"/>
</linearGradient>
</defs>
</svg>
