<svg width="28" height="28" viewBox="0 0 28 28" fill="none" xmlns="http://www.w3.org/2000/svg">
<path fill-rule="evenodd" clip-rule="evenodd" d="M16.2209 5.66617C14.9299 4.60634 13.07 4.60634 11.7791 5.66617L5.5194 10.8053C4.97955 11.2485 4.66665 11.9103 4.66665 12.6087V21C4.66665 22.2887 5.71132 23.3334 6.99998 23.3334H21C22.2886 23.3334 23.3333 22.2887 23.3333 21V12.6087C23.3333 11.9103 23.0204 11.2485 22.4806 10.8053L16.2209 5.66617ZM10.2985 3.86275C12.4501 2.09637 15.5499 2.09637 17.7014 3.86275L23.9611 9.0019C25.0408 9.88831 25.6666 11.2118 25.6666 12.6087V21C25.6666 23.5774 23.5773 25.6667 21 25.6667H6.99998C4.42265 25.6667 2.33331 23.5774 2.33331 21V12.6087C2.33331 11.2118 2.95912 9.88831 4.03881 9.0019L10.2985 3.86275Z" fill="#7673A8"/>
<path fill-rule="evenodd" clip-rule="evenodd" d="M9.33331 19.8333C9.33331 17.256 11.4227 15.1666 14 15.1666C16.5773 15.1666 18.6666 17.256 18.6666 19.8333V24.5H16.3333V19.8333C16.3333 18.5446 15.2886 17.5 14 17.5C12.7113 17.5 11.6666 18.5446 11.6666 19.8333V24.5H9.33331V19.8333Z" fill="#7673A8"/>
</svg>
