<svg width="28" height="28" viewBox="0 0 28 28" fill="none" xmlns="http://www.w3.org/2000/svg">
<path fill-rule="evenodd" clip-rule="evenodd" d="M23.8922 8.84135L17.6085 3.6459C15.4919 1.89587 12.5081 1.89586 10.3915 3.6459L4.10779 8.84135C2.97568 9.77739 2.33333 11.1966 2.33333 12.6774V22.0196C2.33333 23.9656 3.83417 25.6667 5.83333 25.6667H8.16666C10.0997 25.6667 11.6667 24.0997 11.6667 22.1667V18.299C11.6667 17.5052 12.2552 16.9852 12.8333 16.9852H15.1667C15.7448 16.9852 16.3333 17.5052 16.3333 18.299V22.1667C16.3333 24.0997 17.9003 25.6667 19.8333 25.6667H22.1667C24.1658 25.6667 25.6667 23.9656 25.6667 22.0196V12.6774C25.6667 11.1966 25.0243 9.77739 23.8922 8.84135Z" fill="#6860FF"/>
</svg>
