<svg width="16" height="16" viewBox="0 0 16 16" fill="none" xmlns="http://www.w3.org/2000/svg">
<g clip-path="url(#clip0_330_515)">
<path d="M7.33333 11.3327H4.05733L0.03 7.30536C0.0106667 7.53269 0 7.76536 0 7.99936C4.3594e-05 10.0057 0.753934 11.9387 2.11222 13.4153C3.4705 14.8919 5.33402 15.8042 7.33333 15.9714V11.3327Z" fill="#D3E4FC"/>
<path d="M12.7508 12.7496C12.3007 12.302 11.9437 11.7697 11.7004 11.1834C11.4572 10.5971 11.3324 9.9684 11.3335 9.33362H8.66683C8.1364 9.33362 7.62769 9.12291 7.25262 8.74784C6.87754 8.37276 6.66683 7.86406 6.66683 7.33362V5.33362H8.66683V2.66696H11.3908L12.6002 1.45562C11.5621 0.726353 10.3654 0.254428 9.10896 0.0788002C7.85252 -0.0968275 6.57232 0.0288784 5.37404 0.445542C4.17576 0.862206 3.09375 1.55788 2.21733 2.47514C1.3409 3.3924 0.695193 4.50495 0.333496 5.72096L4.6095 10.0003H6.66683C7.19726 10.0003 7.70597 10.211 8.08104 10.5861C8.45612 10.9611 8.66683 11.4699 8.66683 12.0003V15.9723C10.6188 15.8108 12.4433 14.9371 13.7928 13.5176L12.7508 12.7496Z" fill="#D3E4FC"/>
<path d="M13.6593 11.772L14.6287 12.48C15.6729 10.9348 16.1445 9.07329 15.9619 7.21729C15.7793 5.36128 14.954 3.62739 13.6287 2.31531L11.9427 4.00064H10V6.66731H8V8.00064H12.6667V9.32731C12.6695 10.2398 13.0252 11.1158 13.6593 11.772V11.772Z" fill="#D3E4FC"/>
</g>
<defs>
<clipPath id="clip0_330_515">
<rect width="16" height="16" fill="white"/>
</clipPath>
</defs>
</svg>
