<svg width="12" height="12" viewBox="0 0 12 12" fill="none" xmlns="http://www.w3.org/2000/svg">
<g clip-path="url(#clip0_462_488)">
<path d="M11.4997 8.5002C11.3671 8.5002 11.2399 8.55288 11.1462 8.64665C11.0524 8.74042 10.9997 8.8676 10.9997 9.0002V10.2932L9.50272 8.7962C10.5997 7.6252 11.4997 6.2737 11.4997 4.9937C11.5273 4.23516 11.2536 3.49651 10.7383 2.93916C10.223 2.38181 9.5081 2.05107 8.74972 2.0192C8.29869 2.02508 7.85636 2.14406 7.46325 2.36525C7.07015 2.58643 6.73885 2.90275 6.49972 3.2852C6.26058 2.90275 5.92928 2.58643 5.53618 2.36525C5.14307 2.14406 4.70074 2.02508 4.24972 2.0192C3.82569 2.02044 3.40858 2.12678 3.03572 2.3287L0.853215 0.146704C0.758914 0.0556246 0.632613 0.00522735 0.501515 0.00636656C0.370416 0.00750577 0.24501 0.0600902 0.152306 0.152794C0.059602 0.245498 0.00701749 0.370905 0.00587828 0.502003C0.00473907 0.633101 0.0551363 0.759403 0.146215 0.853704L2.24972 2.9577C1.76214 3.52359 1.49575 4.24675 1.49972 4.9937C1.49972 6.8892 3.47522 8.9437 5.13222 10.3317C5.51507 10.6538 5.99936 10.8305 6.49972 10.8305C7.00007 10.8305 7.48436 10.6538 7.86722 10.3317C8.17122 10.0767 8.48622 9.7992 8.79772 9.5047L10.2927 11.0002H8.99972C8.86711 11.0002 8.73993 11.0529 8.64616 11.1467C8.55239 11.2404 8.49972 11.3676 8.49972 11.5002C8.49972 11.6328 8.55239 11.76 8.64616 11.8538C8.73993 11.9475 8.86711 12.0002 8.99972 12.0002H10.9997C11.2649 12.0002 11.5193 11.8948 11.7068 11.7073C11.8944 11.5198 11.9997 11.2654 11.9997 11.0002V9.0002C11.9997 8.8676 11.947 8.74042 11.8533 8.64665C11.7595 8.55288 11.6323 8.5002 11.4997 8.5002ZM7.22472 9.5662C7.01932 9.7317 6.76349 9.82195 6.49972 9.82195C6.23594 9.82195 5.98011 9.7317 5.77472 9.5662C3.69322 7.8217 2.49972 6.1552 2.49972 4.9937C2.47232 4.50038 2.6408 4.01619 2.96851 3.64643C3.29623 3.27668 3.75667 3.05126 4.24972 3.0192C4.74276 3.05126 5.20321 3.27668 5.53092 3.64643C5.85864 4.01619 6.02712 4.50038 5.99972 4.9937C5.99972 5.12631 6.05239 5.25349 6.14616 5.34726C6.23993 5.44103 6.36711 5.4937 6.49972 5.4937C6.63232 5.4937 6.7595 5.44103 6.85327 5.34726C6.94704 5.25349 6.99972 5.12631 6.99972 4.9937C6.97232 4.50038 7.1408 4.01619 7.46851 3.64643C7.79623 3.27668 8.25667 3.05126 8.74972 3.0192C9.24276 3.05126 9.70321 3.27668 10.0309 3.64643C10.3586 4.01619 10.5271 4.50038 10.4997 4.9937C10.4997 6.1547 9.30572 7.8212 7.22472 9.5662Z" fill="white"/>
</g>
<defs>
<clipPath id="clip0_462_488">
<rect width="12" height="12" fill="white"/>
</clipPath>
</defs>
</svg>
