<svg width="28" height="28" viewBox="0 0 28 28" fill="none" xmlns="http://www.w3.org/2000/svg">
<path fill-rule="evenodd" clip-rule="evenodd" d="M14 4.66671C12.067 4.66671 10.5 6.23371 10.5 8.16671C10.5 10.0997 12.067 11.6667 14 11.6667C15.933 11.6667 17.5 10.0997 17.5 8.16671C17.5 6.23371 15.933 4.66671 14 4.66671ZM8.16667 8.16671C8.16667 4.94505 10.7783 2.33337 14 2.33337C17.2217 2.33337 19.8333 4.94505 19.8333 8.16671C19.8333 11.3884 17.2217 14 14 14C10.7783 14 8.16667 11.3884 8.16667 8.16671Z" fill="#7673A8"/>
<path fill-rule="evenodd" clip-rule="evenodd" d="M14 23.3333C10.583 23.3333 8.55707 22.2995 7.39128 20.9659C7.03606 20.5595 6.94349 20.2024 6.95422 19.9093C6.96568 19.5966 7.10084 19.2347 7.40509 18.864C8.03004 18.1024 9.21821 17.5 10.5 17.5H17.5C18.7818 17.5 19.97 18.1024 20.5949 18.864C20.8992 19.2347 21.0343 19.5966 21.0458 19.9093C21.0565 20.2024 20.9639 20.5595 20.6087 20.9659C19.4429 22.2995 17.417 23.3333 14 23.3333ZM5.63452 22.5015C7.35251 24.4669 10.0955 25.6666 14 25.6666C17.9045 25.6666 20.6475 24.4669 22.3655 22.5015C23.0704 21.6951 23.4122 20.7708 23.3776 19.8239C23.3436 18.8966 22.9535 18.06 22.3987 17.3838C21.3054 16.0516 19.4399 15.1666 17.5 15.1666H10.5C8.56014 15.1666 6.69461 16.0516 5.60135 17.3838C5.04649 18.06 4.65642 18.8966 4.62245 19.8239C4.58777 20.7708 4.92959 21.6951 5.63452 22.5015Z" fill="#7673A8"/>
</svg>
