<svg width="28" height="28" viewBox="0 0 28 28" fill="none" xmlns="http://www.w3.org/2000/svg">
<path fill-rule="evenodd" clip-rule="evenodd" d="M14 2.33337C10.7784 2.33337 8.16669 4.94505 8.16669 8.16671C8.16669 11.3884 10.7784 14 14 14C17.2217 14 19.8334 11.3884 19.8334 8.16671C19.8334 4.94505 17.2217 2.33337 14 2.33337Z" fill="#6860FF"/>
<path fill-rule="evenodd" clip-rule="evenodd" d="M10.5 15.1666C8.56013 15.1666 6.69461 16.0516 5.60135 17.3838C5.04649 18.06 4.65642 18.8966 4.62245 19.8239C4.58777 20.7708 4.92959 21.6951 5.63452 22.5015C7.35251 24.4669 10.0955 25.6666 14 25.6666C17.9045 25.6666 20.6475 24.4669 22.3655 22.5015C23.0704 21.6951 23.4122 20.7708 23.3776 19.8239C23.3436 18.8966 22.9535 18.06 22.3987 17.3838C21.3054 16.0516 19.4399 15.1666 17.5 15.1666H10.5Z" fill="#6860FF"/>
</svg>
