<svg width="20" height="20" viewBox="0 0 20 20" fill="none" xmlns="http://www.w3.org/2000/svg">
<g clip-path="url(#clip0_98_273)">
<path d="M19.9998 18.824L14.7917 13.6158C17.7039 10.0541 17.1774 4.80595 13.6156 1.89373C10.0539 -1.0185 4.80577 -0.491977 1.89354 3.06978C-1.01868 6.63154 -0.492157 11.8797 3.06956 14.7919C6.13745 17.3003 10.5478 17.3003 13.6156 14.7919L18.8238 20L19.9998 18.824ZM8.35592 15.0098C4.6812 15.0098 1.70226 12.0308 1.70226 8.35611C1.70226 4.68138 4.6812 1.70244 8.35592 1.70244C12.0306 1.70244 15.0096 4.68138 15.0096 8.35611C15.0054 12.0291 12.0289 15.0056 8.35592 15.0098ZM9.99853 5.02927C9.39299 5.02189 8.80584 5.23705 8.34842 5.63392C7.88123 5.23584 7.28541 5.02099 6.6717 5.02927C5.24905 5.0781 4.13362 6.26791 4.17659 7.69076C4.17659 9.9713 7.47764 12.3724 7.8544 12.6386L8.33514 12.9787L8.81502 12.6386C9.19178 12.3724 12.4937 9.97126 12.4937 7.69076C12.5362 6.26806 11.421 5.07853 9.99853 5.02927ZM8.33514 10.9186C7.17076 9.99376 5.84002 8.584 5.84002 7.69076C5.7985 7.18689 6.16862 6.74275 6.67174 6.69271C7.11264 6.66337 7.49385 6.99705 7.52319 7.43794C7.5251 7.46673 7.52545 7.4956 7.52424 7.52439H9.18764C9.14854 7.10498 9.45686 6.73334 9.87623 6.69423C9.91689 6.69044 9.95779 6.68994 9.99853 6.69267C10.5014 6.74314 10.8713 7.18697 10.8303 7.69072C10.8303 8.584 9.49619 9.99373 8.33514 10.9186Z" fill="#7673A8"/>
</g>
<defs>
<clipPath id="clip0_98_273">
<rect width="20" height="20" fill="white"/>
</clipPath>
</defs>
</svg>
