<svg width="24" height="24" viewBox="0 0 24 24" fill="none" xmlns="http://www.w3.org/2000/svg">
<g clip-path="url(#clip0_98_277)">
<path d="M23.954 5.54187L15.536 13.9599C14.5974 14.8961 13.3257 15.4219 12 15.4219C10.6743 15.4219 9.40263 14.8961 8.464 13.9599L0.046 5.54187C0.032 5.69987 0 5.84287 0 5.99987V17.9999C0.00158786 19.3255 0.528882 20.5963 1.46622 21.5337C2.40356 22.471 3.67441 22.9983 5 22.9999H19C20.3256 22.9983 21.5964 22.471 22.5338 21.5337C23.4711 20.5963 23.9984 19.3255 24 17.9999V5.99987C24 5.84287 23.968 5.69987 23.954 5.54187Z" fill="url(#paint0_linear_98_277)"/>
<path d="M14.1221 12.5458L23.2561 3.41082C22.8137 2.67714 22.1896 2.06985 21.4441 1.64755C20.6986 1.22524 19.8569 1.00216 19.0001 0.999817H5.00014C4.14336 1.00216 3.30164 1.22524 2.55617 1.64755C1.81069 2.06985 1.18662 2.67714 0.744141 3.41082L9.87814 12.5458C10.4417 13.1071 11.2047 13.4223 12.0001 13.4223C12.7956 13.4223 13.5586 13.1071 14.1221 12.5458Z" fill="url(#paint1_linear_98_277)"/>
</g>
<defs>
<linearGradient id="paint0_linear_98_277" x1="1" y1="3.5" x2="11" y2="16" gradientUnits="userSpaceOnUse">
<stop stop-color="#F19FDF"/>
<stop offset="1" stop-color="#F560C3"/>
</linearGradient>
<linearGradient id="paint1_linear_98_277" x1="0.5" y1="1.5" x2="11.5" y2="8.5" gradientUnits="userSpaceOnUse">
<stop stop-color="#EFB1E7"/>
<stop offset="1" stop-color="#F45FC2"/>
</linearGradient>
<clipPath id="clip0_98_277">
<rect width="24" height="24" fill="white"/>
</clipPath>
</defs>
</svg>
