<svg width="22" height="22" viewBox="0 0 22 22" fill="none" xmlns="http://www.w3.org/2000/svg">
<circle cx="11" cy="11" r="10.5" stroke="#E0DFE4"/>
<circle cx="7.62658" cy="9.38671" r="1.46667" fill="#D9D9D9"/>
<path d="M13.2001 9.23992L12.9095 8.83305L12.2743 9.28676L12.952 9.67404L13.2001 9.23992ZM16.032 11.434C16.2718 11.571 16.5772 11.4877 16.7142 11.248C16.8512 11.0082 16.7679 10.7028 16.5282 10.5658L16.032 11.434ZM15.9895 6.63305L12.9095 8.83305L13.4907 9.64678L16.5707 7.44678L15.9895 6.63305ZM12.952 9.67404L16.032 11.434L16.5282 10.5658L13.4482 8.8058L12.952 9.67404ZM8.21643 17.1988C9.05682 17.4509 10.6475 17.4849 12.156 17.1058C13.6613 16.7276 15.2544 15.8926 15.8683 14.2555L14.9319 13.9044C14.4899 15.0832 13.2962 15.7882 11.9123 16.136C10.5314 16.483 9.13006 16.4289 8.50378 16.241L8.21643 17.1988Z" fill="#D9D9D9"/>
</svg>
