<svg width="24" height="24" viewBox="0 0 24 24" fill="none" xmlns="http://www.w3.org/2000/svg">
<g clip-path="url(#clip0_98_305)">
<path d="M8.7 18H3C1.507 18 0 16.866 0 14.334V9.29395C0.0210272 6.99612 0.881427 4.78526 2.41918 3.07769C3.95693 1.37013 6.06592 0.283682 8.349 0.02295C9.63736 -0.0705757 10.9308 0.114332 12.1413 0.565107C13.3518 1.01588 14.4512 1.72196 15.3646 2.63537C16.278 3.54877 16.9841 4.6481 17.4348 5.85865C17.8856 7.06919 18.0705 8.36259 17.977 9.65095C17.7159 11.935 16.6286 14.0447 14.9198 15.5825C13.211 17.1203 10.9988 17.9802 8.7 18ZM20 9.07995H19.988C19.988 9.31695 19.988 9.55395 19.976 9.79195C19.59 15.2 14.647 19.778 9.084 19.981V19.996C9.78461 21.2111 10.7924 22.2206 12.0062 22.9234C13.2201 23.6261 14.5974 23.9974 16 24H21C21.7956 24 22.5587 23.6839 23.1213 23.1213C23.6839 22.5587 24 21.7956 24 21V16C23.9986 14.597 23.6282 13.2192 22.9262 12.0046C22.2241 10.79 21.215 9.7814 20 9.07995Z" fill="url(#paint0_linear_98_305)"/>
</g>
<defs>
<linearGradient id="paint0_linear_98_305" x1="2.5" y1="2.5" x2="9" y2="8.5" gradientUnits="userSpaceOnUse">
<stop stop-color="#CCA9EF"/>
<stop offset="1" stop-color="#AE7AF4"/>
</linearGradient>
<clipPath id="clip0_98_305">
<rect width="24" height="24" fill="white"/>
</clipPath>
</defs>
</svg>
