<svg width="16" height="16" viewBox="0 0 16 16" fill="none" xmlns="http://www.w3.org/2000/svg">
<g clip-path="url(#clip0_795_1659)">
<path d="M12.6666 1.33351H6.63731C6.12945 1.33194 5.62805 1.44723 5.17188 1.67046C4.71571 1.89369 4.31702 2.21887 4.00664 2.62085L0.139974 7.59085C0.048938 7.70787 -0.000488281 7.85191 -0.000488281 8.00018C-0.000488281 8.14845 0.048938 8.29248 0.139974 8.40951L4.00664 13.3795C4.31702 13.7815 4.71571 14.1067 5.17188 14.3299C5.62805 14.5531 6.12945 14.6684 6.63731 14.6668H12.6666C13.5504 14.6658 14.3976 14.3143 15.0225 13.6894C15.6474 13.0645 15.9989 12.2172 16 11.3335V4.66685C15.9989 3.78312 15.6474 2.93588 15.0225 2.31099C14.3976 1.6861 13.5504 1.33457 12.6666 1.33351ZM14.6666 11.3335C14.6666 11.8639 14.4559 12.3727 14.0809 12.7477C13.7058 13.1228 13.1971 13.3335 12.6666 13.3335H6.63731C6.33258 13.3346 6.03169 13.2655 5.75794 13.1316C5.48419 12.9978 5.24492 12.8027 5.05864 12.5615L1.51131 8.00018L5.05864 3.43885C5.24492 3.19767 5.48419 3.0026 5.75794 2.86873C6.03169 2.73486 6.33258 2.66579 6.63731 2.66685H12.6666C13.1971 2.66685 13.7058 2.87756 14.0809 3.25263C14.4559 3.6277 14.6666 4.13641 14.6666 4.66685V11.3335ZM11.4713 6.80485L10.276 8.00018L11.4713 9.19551C11.535 9.25701 11.5858 9.33057 11.6207 9.41191C11.6556 9.49325 11.674 9.58073 11.6748 9.66924C11.6756 9.75776 11.6587 9.84555 11.6252 9.92748C11.5917 10.0094 11.5422 10.0838 11.4796 10.1464C11.417 10.209 11.3425 10.2585 11.2606 10.2921C11.1787 10.3256 11.0909 10.3424 11.0024 10.3417C10.9139 10.3409 10.8264 10.3225 10.745 10.2876C10.6637 10.2526 10.5901 10.2019 10.5286 10.1382L9.33331 8.94285L8.13797 10.1382C8.01224 10.2596 7.84384 10.3268 7.66904 10.3253C7.49424 10.3238 7.32703 10.2537 7.20343 10.1301C7.07982 10.0065 7.00971 9.83924 7.00819 9.66445C7.00667 9.48965 7.07387 9.32125 7.19531 9.19551L8.39064 8.00018L7.19531 6.80485C7.07387 6.67911 7.00667 6.51071 7.00819 6.33591C7.00971 6.16111 7.07982 5.99391 7.20343 5.8703C7.32703 5.74669 7.49424 5.67658 7.66904 5.67506C7.84384 5.67354 8.01224 5.74074 8.13797 5.86218L9.33331 7.05751L10.5286 5.86218C10.6544 5.74074 10.8228 5.67354 10.9976 5.67506C11.1724 5.67658 11.3396 5.74669 11.4632 5.8703C11.5868 5.99391 11.6569 6.16111 11.6584 6.33591C11.6599 6.51071 11.5927 6.67911 11.4713 6.80485Z" fill="white"/>
</g>
<defs>
<clipPath id="clip0_795_1659">
<rect width="16" height="16" fill="white"/>
</clipPath>
</defs>
</svg>
