<svg width="18" height="18" viewBox="0 0 18 18" fill="none" xmlns="http://www.w3.org/2000/svg">
<g clip-path="url(#clip0_795_1168)">
<path d="M7.5 12.7501H5.49675C5.20104 12.7511 4.90809 12.6933 4.63489 12.5801C4.36168 12.4669 4.11368 12.3006 3.90525 12.0909L0.039 8.22461C0.01725 8.48111 0 8.73836 0 9.00011C0.00329385 11.2556 0.852705 13.4277 2.38031 15.0871C3.90791 16.7465 6.00251 17.7724 8.25 17.9619V13.5001C8.25 13.3012 8.17098 13.1104 8.03033 12.9698C7.88968 12.8291 7.69891 12.7501 7.5 12.7501Z" fill="#9D9AF9"/>
<path d="M15.327 2.6084L13.9845 3.9509C13.6322 4.30122 13.156 4.49849 12.6593 4.4999H11.625C11.5255 4.4999 11.4302 4.53941 11.3598 4.60973C11.2895 4.68006 11.25 4.77544 11.25 4.8749V5.6249C11.25 6.12218 11.0525 6.59909 10.7008 6.95072C10.3492 7.30235 9.87228 7.4999 9.375 7.4999C9.27554 7.4999 9.18016 7.53941 9.10983 7.60973C9.03951 7.68006 9 7.77544 9 7.8749V8.2499C9 8.44881 9.07902 8.63958 9.21967 8.78023C9.36032 8.92088 9.55109 8.9999 9.75 8.9999H12C12.5967 8.9999 13.169 9.23695 13.591 9.65891C14.0129 10.0809 14.25 10.6532 14.25 11.2499V11.9714C14.25 12.0707 14.2894 12.1659 14.3595 12.2361L16.3283 14.2056C17.5694 12.4699 18.1504 10.3482 17.9669 8.22233C17.7833 6.09642 16.8472 4.10576 15.327 2.6084Z" fill="#9D9AF9"/>
<path d="M12.7499 11.9724V11.2509C12.7499 11.052 12.6709 10.8612 12.5302 10.7205C12.3896 10.5799 12.1988 10.5009 11.9999 10.5009H9.74988C9.15314 10.5009 8.58084 10.2638 8.15889 9.84186C7.73693 9.4199 7.49988 8.84761 7.49988 8.25087V7.87587C7.49988 7.37859 7.69742 6.90167 8.04905 6.55004C8.40068 6.19841 8.8776 6.00087 9.37488 6.00087C9.47433 6.00087 9.56972 5.96136 9.64004 5.89103C9.71037 5.82071 9.74988 5.72533 9.74988 5.62587V4.87587C9.74988 4.37859 9.94742 3.90167 10.2991 3.55004C10.6507 3.19841 11.1276 3.00087 11.6249 3.00087H12.6591C12.7583 3.00028 12.8533 2.96099 12.9239 2.89137L14.1696 1.64562C13.0033 0.821871 11.6574 0.2881 10.2435 0.0885876C8.82968 -0.110925 7.38862 0.0295736 6.03992 0.498426C4.69121 0.967279 3.47375 1.75097 2.48852 2.78448C1.5033 3.818 0.77871 5.07154 0.374878 6.44112L4.96488 11.0311C5.03468 11.1009 5.11759 11.1563 5.20884 11.194C5.30009 11.2317 5.39789 11.251 5.49663 11.2509H7.49988C8.09662 11.2509 8.66891 11.4879 9.09087 11.9099C9.51283 12.3318 9.74988 12.9041 9.74988 13.5009V17.9626C11.8699 17.7881 13.859 16.866 15.3621 15.3609L13.2989 13.2976C12.9486 12.9454 12.7513 12.4692 12.7499 11.9724Z" fill="#9D9AF9"/>
</g>
<defs>
<clipPath id="clip0_795_1168">
<rect width="18" height="18" fill="white"/>
</clipPath>
</defs>
</svg>
