<svg width="19" height="18" viewBox="0 0 19 18" fill="none" xmlns="http://www.w3.org/2000/svg">
<g clip-path="url(#clip0_795_998)">
<path d="M18.8671 17.2498C18.8671 17.4487 18.788 17.6394 18.6474 17.7801C18.5067 17.9208 18.316 17.9998 18.1171 17.9998H1.61707C1.41815 17.9998 1.22739 17.9208 1.08674 17.7801C0.946083 17.6394 0.867065 17.4487 0.867065 17.2498C0.867065 17.0509 0.946083 16.8601 1.08674 16.7194C1.22739 16.5788 1.41815 16.4998 1.61707 16.4998H18.1171C18.316 16.4998 18.5067 16.5788 18.6474 16.7194C18.788 16.8601 18.8671 17.0509 18.8671 17.2498ZM3.67957 11.2498C4.48057 11.2498 4.99207 10.757 4.99207 10.4998C4.99207 10.3009 5.07108 10.1101 5.21174 9.96944C5.35239 9.82879 5.54315 9.74977 5.74207 9.74977C5.94098 9.74977 6.13174 9.82879 6.2724 9.96944C6.41305 10.1101 6.49207 10.3009 6.49207 10.4998C6.49207 10.7293 6.98782 11.2498 7.80457 11.2498C8.60557 11.2498 9.11707 10.757 9.11707 10.4998C9.11707 10.3009 9.19608 10.1101 9.33674 9.96944C9.47739 9.82879 9.66815 9.74977 9.86707 9.74977C10.066 9.74977 10.2567 9.82879 10.3974 9.96944C10.538 10.1101 10.6171 10.3009 10.6171 10.4998C10.6171 10.7293 11.1128 11.2498 11.9296 11.2498C12.7306 11.2498 13.2421 10.757 13.2421 10.4998C13.2421 10.3009 13.3211 10.1101 13.4617 9.96944C13.6024 9.82879 13.7932 9.74977 13.9921 9.74977C14.191 9.74977 14.3817 9.82879 14.5224 9.96944C14.663 10.1101 14.7421 10.3009 14.7421 10.4998C14.7421 10.7293 15.2378 11.2498 16.0546 11.2498C16.8713 11.2498 17.3671 10.7293 17.3671 10.4998C17.3659 9.50558 16.9704 8.55244 16.2674 7.84944C15.5644 7.14643 14.6113 6.75096 13.6171 6.74977H10.6171V5.11177C11.0542 4.95721 11.433 4.67135 11.7015 4.2933C11.97 3.91524 12.1151 3.46347 12.1171 2.99977C11.956 2.04427 11.5215 1.15593 10.8661 0.442271C10.7363 0.308664 10.5811 0.202451 10.4096 0.129921C10.238 0.057391 10.0537 0.0200195 9.86744 0.0200195C9.6812 0.0200195 9.49686 0.057391 9.32533 0.129921C9.15379 0.202451 8.99856 0.308664 8.86882 0.442271C8.21285 1.15566 7.77801 2.04409 7.61707 2.99977C7.61899 3.46347 7.76413 3.91524 8.03263 4.2933C8.30113 4.67135 8.67988 4.95721 9.11707 5.11177V6.74977H6.11707C5.12287 6.75096 4.16973 7.14643 3.46673 7.84944C2.76373 8.55244 2.36826 9.50558 2.36707 10.4998C2.36707 10.7293 2.86282 11.2498 3.67957 11.2498ZM3.11707 14.9998H16.6171C16.816 14.9998 17.0067 14.9208 17.1474 14.7801C17.288 14.6394 17.3671 14.4487 17.3671 14.2498V12.4685C16.9537 12.652 16.5068 12.7478 16.0546 12.7498C15.2993 12.7555 14.5672 12.4893 13.9921 11.9998C13.4135 12.482 12.6848 12.7471 11.9316 12.7491C11.1784 12.7512 10.4482 12.4901 9.86707 12.011C9.28592 12.4901 8.5557 12.7512 7.80254 12.7491C7.04938 12.7471 6.32059 12.482 5.74207 11.9998C5.1669 12.4893 4.43481 12.7555 3.67957 12.7498C3.22732 12.7478 2.7804 12.652 2.36707 12.4685V14.2498C2.36707 14.4487 2.44608 14.6394 2.58674 14.7801C2.72739 14.9208 2.91815 14.9998 3.11707 14.9998Z" fill="#9D9AF9"/>
</g>
<defs>
<clipPath id="clip0_795_998">
<rect width="18" height="18" fill="white" transform="translate(0.867065)"/>
</clipPath>
</defs>
</svg>
