<svg width="19" height="18" viewBox="0 0 19 18" fill="none" xmlns="http://www.w3.org/2000/svg">
<path d="M9.53882 5.0625C10.6261 5.0625 11.5076 4.18106 11.5076 3.09375C11.5076 2.00644 10.6261 1.125 9.53882 1.125C8.45151 1.125 7.57007 2.00644 7.57007 3.09375C7.57007 4.18106 8.45151 5.0625 9.53882 5.0625Z" fill="#9D9AF9" stroke="#9D9AF9" stroke-width="1.5" stroke-linecap="round" stroke-linejoin="round"/>
<path d="M11.367 9.47109L13.8139 11.3695C13.9756 11.5042 14.1819 11.5735 14.3921 11.5639C14.6024 11.5543 14.8015 11.4665 14.9503 11.3177C15.0991 11.1688 15.1869 10.9698 15.1965 10.7595C15.2061 10.5493 15.1368 10.343 15.0022 10.1813L12.2178 6.60234C12.088 6.47127 11.9336 6.36714 11.7635 6.29594C11.5933 6.22475 11.4108 6.18789 11.2264 6.1875H7.85137C7.47703 6.1895 7.11847 6.33849 6.85293 6.60234L4.06856 10.1813C3.92358 10.3422 3.84604 10.5527 3.852 10.7692C3.85796 10.9857 3.94697 11.1917 4.10058 11.3444C4.25419 11.4971 4.46064 11.5849 4.67719 11.5895C4.89374 11.5942 5.1038 11.5155 5.26387 11.3695L7.71074 9.47109L5.75606 15.6305C5.70897 15.7311 5.68216 15.8401 5.67717 15.9511C5.67218 16.0621 5.6891 16.173 5.72697 16.2774C5.76484 16.3819 5.82291 16.4779 5.89787 16.5599C5.97284 16.6419 6.06322 16.7084 6.16387 16.7555C6.26452 16.8026 6.37345 16.8294 6.48446 16.8344C6.59546 16.8393 6.70636 16.8224 6.81083 16.7846C6.9153 16.7467 7.01128 16.6886 7.0933 16.6137C7.17532 16.5387 7.24178 16.4483 7.28887 16.3477L9.53887 12.8039L11.7889 16.3477C11.8328 16.4527 11.8976 16.5478 11.9792 16.6271C12.0609 16.7065 12.1578 16.7685 12.264 16.8094C12.3703 16.8503 12.4837 16.8693 12.5975 16.8652C12.7113 16.8611 12.8231 16.834 12.9262 16.7856C13.0292 16.7371 13.1214 16.6683 13.1971 16.5833C13.2729 16.4983 13.3307 16.3989 13.367 16.2909C13.4033 16.183 13.4173 16.0689 13.4083 15.9554C13.3994 15.8418 13.3675 15.7313 13.3147 15.6305L11.367 9.47109Z" fill="#9D9AF9" stroke="#9D9AF9" stroke-width="1.5" stroke-linecap="round" stroke-linejoin="round"/>
</svg>
