<svg width="12" height="19" viewBox="0 0 12 19" fill="none" xmlns="http://www.w3.org/2000/svg">
<path d="M6.42804 1.0976C6.13514 0.804706 5.66027 0.804706 5.36737 1.0976L0.594404 5.87057C0.301511 6.16346 0.301511 6.63834 0.594404 6.93123C0.887298 7.22412 1.36217 7.22412 1.65506 6.93123L5.89771 2.68859L10.1403 6.93123C10.4332 7.22412 10.9081 7.22412 11.201 6.93123C11.4939 6.63834 11.4939 6.16346 11.201 5.87057L6.42804 1.0976ZM5.36738 18.1583C5.66027 18.4512 6.13514 18.4512 6.42804 18.1583L11.201 13.3853C11.4939 13.0924 11.4939 12.6175 11.201 12.3246C10.9081 12.0317 10.4332 12.0317 10.1403 12.3246L5.89771 16.5673L1.65507 12.3246C1.36217 12.0317 0.887298 12.0317 0.594405 12.3246C0.301511 12.6175 0.301511 13.0924 0.594405 13.3853L5.36738 18.1583ZM5.14771 1.62793L5.14771 17.6279L6.64771 17.6279L6.64771 1.62793L5.14771 1.62793Z" fill="#B2AEFF"/>
</svg>
