<svg width="18" height="18" viewBox="0 0 18 18" fill="none" xmlns="http://www.w3.org/2000/svg">
<g clip-path="url(#clip0_795_1163)">
<path d="M15.5998 3.21944C15.4568 3.09191 15.2703 3.02399 15.0787 3.02962C14.8872 3.03525 14.705 3.11401 14.5697 3.24972C14.4344 3.38543 14.3561 3.5678 14.351 3.75938C14.3459 3.95097 14.4144 4.13723 14.5423 4.27994C15.792 5.5328 16.4938 7.23013 16.4938 8.99969C16.4938 10.7692 15.792 12.4666 14.5423 13.7194C14.4662 13.7873 14.4047 13.87 14.3616 13.9625C14.3185 14.055 14.2947 14.1553 14.2917 14.2573C14.2887 14.3592 14.3065 14.4608 14.3441 14.5556C14.3817 14.6505 14.4383 14.7366 14.5103 14.8089C14.5823 14.8811 14.6684 14.9379 14.7631 14.9758C14.8578 15.0136 14.9593 15.0317 15.0613 15.029C15.1633 15.0263 15.2636 15.0028 15.3562 14.96C15.4488 14.9172 15.5317 14.8559 15.5998 14.7799C17.1307 13.2458 17.9905 11.167 17.9905 8.99969C17.9905 6.83238 17.1307 4.75359 15.5998 3.21944Z" fill="#9D9AF9"/>
<path d="M13.5699 5.47018C13.5007 5.39854 13.4179 5.34141 13.3264 5.3021C13.2349 5.26279 13.1365 5.2421 13.0369 5.24124C12.9373 5.24037 12.8386 5.25935 12.7464 5.29706C12.6542 5.33477 12.5705 5.39046 12.5001 5.46088C12.4296 5.5313 12.374 5.61504 12.3362 5.70721C12.2985 5.79938 12.2796 5.89814 12.2804 5.99773C12.2813 6.09731 12.302 6.19573 12.3413 6.28723C12.3806 6.37873 12.4377 6.46149 12.5094 6.53068C13.1631 7.18637 13.5302 8.07451 13.5302 9.00042C13.5302 9.92633 13.1631 10.8145 12.5094 11.4702C12.4377 11.5394 12.3806 11.6221 12.3413 11.7136C12.302 11.8051 12.2813 11.9035 12.2804 12.0031C12.2796 12.1027 12.2985 12.2015 12.3362 12.2936C12.374 12.3858 12.4296 12.4695 12.5001 12.54C12.5705 12.6104 12.6542 12.6661 12.7464 12.7038C12.8386 12.7415 12.9373 12.7605 13.0369 12.7596C13.1365 12.7587 13.2349 12.738 13.3264 12.6987C13.4179 12.6594 13.5007 12.6023 13.5699 12.5307C14.5046 11.5936 15.0296 10.324 15.0296 9.00042C15.0296 7.67683 14.5046 6.40726 13.5699 5.47018Z" fill="#9D9AF9"/>
<path d="M10.3643 0.154478C8.08539 0.582222 6.05797 1.86913 4.701 3.74923H3.75C2.7558 3.75042 1.80267 4.14589 1.09966 4.84889C0.396661 5.5519 0.00119089 6.50503 0 7.49923L0 10.4992C0.00119089 11.4934 0.396661 12.4466 1.09966 13.1496C1.80267 13.8526 2.7558 14.248 3.75 14.2492H4.70175C6.05833 16.1294 8.08555 17.4163 10.3643 17.844C10.4724 17.8639 10.5836 17.8598 10.69 17.8319C10.7963 17.8041 10.8953 17.7532 10.9798 17.6828C11.0643 17.6125 11.1323 17.5244 11.179 17.4248C11.2257 17.3253 11.2499 17.2167 11.25 17.1067V0.891728C11.2499 0.781768 11.2257 0.673165 11.179 0.573611C11.1323 0.474058 11.0643 0.385989 10.9798 0.315644C10.8953 0.245299 10.7963 0.194398 10.69 0.166546C10.5836 0.138695 10.4724 0.134575 10.3643 0.154478Z" fill="#9D9AF9"/>
</g>
<defs>
<clipPath id="clip0_795_1163">
<rect width="18" height="18" fill="white"/>
</clipPath>
</defs>
</svg>
