<svg width="19" height="18" viewBox="0 0 19 18" fill="none" xmlns="http://www.w3.org/2000/svg">
<g clip-path="url(#clip0_795_1015)">
<path d="M18.2079 5.34139L16.3974 3.53014L17.8974 2.03014L16.8369 0.969644L15.3369 2.46964L13.5264 0.659145C13.3175 0.450172 13.0695 0.284404 12.7964 0.171308C12.5234 0.0582106 12.2308 0 11.9353 0C11.6398 0 11.3472 0.0582106 11.0742 0.171308C10.8012 0.284404 10.5531 0.450172 10.3442 0.659145L8.22319 2.78014L11.6244 6.18214L7.04945 10.7571L3.64745 7.35589L1.52645 9.47689C1.10464 9.89883 0.867676 10.471 0.867676 11.0676C0.867676 11.6643 1.10464 12.2365 1.52645 12.6584L3.33695 14.4696L1.83695 15.9696L2.89745 17.0301L4.39744 15.5301L6.20794 17.3406C6.41688 17.5496 6.66494 17.7154 6.93794 17.8285C7.21095 17.9416 7.50356 17.9998 7.79907 17.9998C8.09458 17.9998 8.38719 17.9416 8.6602 17.8285C8.9332 17.7154 9.18126 17.5496 9.3902 17.3406L11.5112 15.2196L8.10994 11.8176L12.6849 7.24264L16.0862 10.6439L18.2072 8.52289C18.629 8.10096 18.866 7.52876 18.866 6.93214C18.866 6.33552 18.629 5.76333 18.2072 5.34139H18.2079Z" fill="#9D9AF9"/>
</g>
<defs>
<clipPath id="clip0_795_1015">
<rect width="18" height="18" fill="white" transform="translate(0.867065)"/>
</clipPath>
</defs>
</svg>
